<svg width="32" height="22" viewBox="0 0 32 22" fill="none" xmlns="http://www.w3.org/2000/svg">
<path d="M6.36575 1.9754C7.06255 1.9754 6.0576 3.16119 7.32723 7.21778C7.83308 8.83238 8.61027 10.658 10.0072 11.8739C11.8698 13.4852 12.1243 12.6311 12.1243 11.1304C12.1243 9.62969 12.1243 5.29161 11.6989 4.15603C11.2734 3.02046 10.4929 2.9702 10.9117 2.05571C11.183 1.4695 13.2868 1.55995 15.1058 1.55995C16.9249 1.55995 17.8963 1.35561 17.8963 2.81612V9.83055C17.8963 10.8355 18.5932 11.616 20.2213 9.62953C21.8493 7.64311 23.4003 4.43747 23.7856 3.54643C24.1708 2.65539 24.4857 1.53656 26.0334 1.53656H29.0183C30.1506 1.53656 30.6932 2.10269 29.715 4.15276C29.715 4.15276 27.1825 8.74197 26.3818 9.93114C25.0418 11.9176 24.8509 12.0783 26.4589 13.7633C27.8422 15.2899 29.0762 16.9455 30.1438 18.7075C30.7669 19.7325 30.9981 20.9385 29.3298 20.9385H26.1138C24.3316 20.9385 24.2512 20.1714 22.6265 18.2587C20.9046 16.232 20.114 15.6056 19.6584 15.3644C18.7573 14.8921 17.8863 14.8552 17.8863 16.7612C17.8863 19.8832 18.4692 20.9385 16.1644 20.9385C13.6452 20.9385 9.32042 21.0189 5.52491 16.8183C0.396107 11.1404 0.349237 1.97197 1.87012 1.97197L6.36575 1.9754Z" stroke="#2E8EFF" stroke-width="1.5" stroke-linecap="round" stroke-linejoin="round"/>
</svg>
