<svg width="29" height="24" viewBox="0 0 29 24" fill="none" xmlns="http://www.w3.org/2000/svg">
<path d="M28.1029 11.5919C28.0971 10.0359 28.013 8.4813 27.8511 6.93376C27.7252 5.494 27.2054 4.08654 26.6792 3.56358C26.153 3.04062 25.9239 2.27223 20.4166 1.86549C20.4166 1.86549 18.2925 1.63315 15.5001 1.63315H14.2089C11.4198 1.63315 9.29564 1.86549 9.29564 1.86549C3.78517 2.26901 3.55593 3.04385 3.03296 3.56358C2.51 4.08331 1.98385 5.50045 1.85795 6.93376C1.69708 8.48135 1.61411 10.036 1.60938 11.5919V12.8831C1.61411 14.4391 1.69708 15.9938 1.85795 17.5414C1.98385 18.9812 2.50355 20.3887 3.03296 20.9085C3.56238 21.4282 3.78517 22.1997 9.29564 22.6097C9.29564 22.6097 11.4198 22.842 14.2089 22.842H15.5001C18.2925 22.842 20.4166 22.6097 20.4166 22.6097C25.9239 22.2062 26.1563 21.4314 26.6792 20.9085C27.2022 20.3855 27.7252 18.9715 27.8511 17.5414C28.013 15.9939 28.0971 14.4391 28.1029 12.8831V11.5919Z" stroke="#E82555" stroke-width="1.5" stroke-linecap="round" stroke-linejoin="round"/>
<path d="M10.8438 17.5414V6.93689L20.5444 12.2375L10.8438 17.5414Z" stroke="#E82555" stroke-width="1.5" stroke-linecap="round" stroke-linejoin="round"/>
</svg>
