<svg width="18" height="31" fill="none" xmlns="http://www.w3.org/2000/svg"><path d="M9.223 11.642c.65 0 1.285-.2 1.825-.572.54-.374.962-.905 1.21-1.525a3.504 3.504 0 00.187-1.964 3.436 3.436 0 00-.899-1.74 3.253 3.253 0 00-1.682-.93 3.184 3.184 0 00-1.898.194c-.6.257-1.114.692-1.475 1.251a3.482 3.482 0 00-.553 1.888c0 .901.346 1.766.962 2.403a3.23 3.23 0 002.323.995z" stroke="#F27400" stroke-width="1.5" stroke-linecap="round" stroke-linejoin="round"/><path d="M9.226 15.47a6.83 6.83 0 003.887-1.218 7.188 7.188 0 002.578-3.246 7.465 7.465 0 00.4-4.18 7.315 7.315 0 00-1.914-3.706 6.926 6.926 0 00-3.582-1.98 6.78 6.78 0 00-4.042.41 7.052 7.052 0 00-3.14 2.665 7.413 7.413 0 00-1.179 4.02 7.372 7.372 0 002.05 5.112 6.888 6.888 0 004.942 2.123v0zm0-10.643c.65 0 1.285.2 1.826.573.54.374.961.904 1.21 1.525.248.621.313 1.304.187 1.964a3.436 3.436 0 01-.9 1.74 3.253 3.253 0 01-1.682.93 3.184 3.184 0 01-1.898-.194 3.312 3.312 0 01-1.474-1.251 3.482 3.482 0 01-.554-1.888c0-.902.346-1.766.962-2.403a3.231 3.231 0 012.323-.996zm7.69 12.153a1.89 1.89 0 00-.487-.551 1.786 1.786 0 00-2.053-.094C14.35 16.35 11.663 18 9.097 18c-2.565 0-5.236-1.637-5.283-1.665a1.795 1.795 0 00-1.377-.182 1.856 1.856 0 00-1.11.86 1.968 1.968 0 00-.22 1.417c.107.484.392.906.795 1.176a16.79 16.79 0 004.746 1.925l-4.43 4.699c-.341.363-.53.853-.522 1.36.007.507.208.99.56 1.344.352.354.825.548 1.315.541a1.82 1.82 0 001.3-.58l4.23-4.497 4.342 4.513c.171.178.374.32.599.416a1.795 1.795 0 001.415.004 1.896 1.896 0 001.003-1.032 1.969 1.969 0 00-.395-2.085l-4.498-4.686a16.8 16.8 0 004.722-1.922c.208-.13.39-.3.533-.503.144-.202.249-.431.307-.675a1.974 1.974 0 00-.212-1.448v0z" stroke="#F27400" stroke-width="1.5" stroke-linecap="round" stroke-linejoin="round"/></svg>