<svg width="28" height="28" fill="none" xmlns="http://www.w3.org/2000/svg"><path d="M14.083 27.215c7.167 0 12.977-5.81 12.977-12.977 0-7.168-5.81-12.978-12.977-12.978-7.167 0-12.978 5.81-12.978 12.978 0 7.167 5.81 12.977 12.978 12.977z" stroke="#5FA900" stroke-width="1.5" stroke-linecap="round" stroke-linejoin="round"/><path d="M4.875 19.14L6.659 8.194h4.05c1.496 0 3.63.45 3.373 3.376-.257 2.925-2.84 3.086-2.84 3.086l2.84 4.486h-3.428l-2.22-4.089-.627 4.089H4.875z" stroke="#5FA900" stroke-width="1.5" stroke-linecap="round" stroke-linejoin="round"/><path d="M8.684 13.087l.484-2.701h.748c.721 0 1.396.531 1.253 1.352a1.617 1.617 0 01-1.46 1.349H8.684zm6.993-1.349s-.531 3.11-.747 4.509c-.216 1.398.698 2.99 2.435 2.99h1.709c1.279 0 3.11-.651 3.472-2.894.362-2.243.724-4.605.724-4.605h-2.582s-.522 3.332-.698 4.17c-.23 1.095-.455 1.279-1.547 1.279-.555 0-.982-.605-.876-1.247.175-.931.674-4.202.674-4.202h-2.564z" stroke="#5FA900" stroke-width="1.5" stroke-linecap="round" stroke-linejoin="round"/></svg>