<svg width="32" height="22" fill="none" xmlns="http://www.w3.org/2000/svg"><path d="M6.366 1.975c.697 0-.308 1.186.961 5.243.506 1.614 1.283 3.44 2.68 4.656 1.863 1.611 2.117.757 2.117-.744 0-1.5 0-5.838-.425-6.974-.426-1.136-1.206-1.186-.787-2.1.271-.587 2.375-.496 4.194-.496s2.79-.204 2.79 1.256v7.015c0 1.005.697 1.785 2.325-.201 1.628-1.987 3.18-5.193 3.565-6.084.385-.89.7-2.01 2.247-2.01h2.985c1.133 0 1.675.567.697 2.617 0 0-2.532 4.589-3.333 5.778-1.34 1.987-1.531 2.147.077 3.832a32.259 32.259 0 013.685 4.944c.623 1.026.854 2.232-.814 2.232h-3.216c-1.782 0-1.863-.768-3.488-2.68-1.721-2.027-2.512-2.653-2.968-2.895-.9-.472-1.772-.509-1.772 1.397 0 3.122.583 4.178-1.722 4.178-2.519 0-6.844.08-10.64-4.12C.397 11.14.35 1.971 1.87 1.971l4.496.003z" stroke="#2E8EFF" stroke-width="1.5" stroke-linecap="round" stroke-linejoin="round"/></svg>