<svg width="29" height="24" fill="none" xmlns="http://www.w3.org/2000/svg"><path d="M28.103 11.592a46.43 46.43 0 00-.252-4.658c-.126-1.44-.646-2.847-1.172-3.37-.526-.523-.755-1.292-6.262-1.699 0 0-2.125-.232-4.917-.232h-1.29c-2.79 0-4.913.232-4.913.232-5.51.404-5.74 1.179-6.263 1.699-.523.52-1.05 1.936-1.175 3.37a46.418 46.418 0 00-.249 4.658v1.291a46.42 46.42 0 00.249 4.658c.126 1.44.646 2.848 1.175 3.367.53.52.752 1.292 6.263 1.702 0 0 2.124.232 4.913.232h1.29a50.24 50.24 0 004.917-.232c5.507-.404 5.74-1.179 6.262-1.701.523-.523 1.046-1.938 1.172-3.368a46.45 46.45 0 00.252-4.658v-1.291z" stroke="#E82555" stroke-width="1.5" stroke-linecap="round" stroke-linejoin="round"/><path d="M10.844 17.541V6.937l9.7 5.3-9.7 5.304z" stroke="#E82555" stroke-width="1.5" stroke-linecap="round" stroke-linejoin="round"/></svg>